<svg version="1.1" id="Layer_1" xmlns="http://www.w3.org/2000/svg" xmlns:xlink="http://www.w3.org/1999/xlink" x="0px" y="0px"
	 width="100%" viewBox="0 0 1008 448" enable-background="new 0 0 1008 448" xml:space="preserve">
<path fill="#000000" opacity="1.000000" stroke="none" 
	d="
M98.277252,375.318481 
	C119.895752,350.849243 141.229355,326.599518 162.621201,302.401245 
	C179.493622,283.315308 196.544006,264.385590 213.304672,245.202408 
	C221.556015,235.758484 220.769104,238.461212 213.547424,230.206726 
	C175.815475,187.078613 137.886963,144.122482 100.035454,101.098953 
	C99.405006,100.382370 98.471275,99.802734 98.632866,98.492249 
	C99.722137,97.150620 101.326027,97.699257 102.717827,97.697342 
	C132.881516,97.655823 163.045441,97.700348 193.208740,97.583954 
	C196.678894,97.570572 199.116806,98.639198 201.408707,101.242180 
	C240.147873,145.239746 278.927582,189.200790 317.018951,233.764450 
	C320.062805,237.325500 320.335693,239.551498 316.964966,243.301178 
	C294.805511,267.952026 272.928101,292.856628 250.983948,317.700775 
	C234.116455,336.797363 217.235474,355.882599 200.489212,375.085144 
	C197.732864,378.245789 194.798279,379.494568 190.568848,379.469788 
	C161.239365,379.298035 131.908386,379.387146 102.577896,379.369415 
	C100.635162,379.368225 98.620857,379.687714 96.898705,378.832733 
	C96.312355,377.209534 97.218170,376.406006 98.277252,375.318481 
z"/>
<path fill="#000000" opacity="1.000000" stroke="none" 
	d="
M889.605713,185.666656 
	C898.990906,187.327530 905.502014,194.857056 907.238098,205.895020 
	C907.830200,209.659470 908.139099,213.507370 908.149292,217.318268 
	C908.229736,247.483231 908.219971,277.648499 908.187378,307.813629 
	C908.185059,309.935791 908.626953,312.146942 907.462830,314.441254 
	C903.719604,314.284943 900.836914,311.785583 897.506897,310.528809 
	C895.953796,309.942627 894.483398,309.139069 892.967834,308.451111 
	C882.692261,303.786987 882.669495,303.767517 874.980103,311.886261 
	C873.389038,313.566132 871.653381,314.409393 869.288025,314.404510 
	C843.456116,314.351135 817.622070,314.550049 791.792847,314.278381 
	C780.194885,314.156403 769.860352,302.475403 769.687622,290.012085 
	C769.544434,279.681213 769.647583,269.346802 769.653015,259.013977 
	C769.660339,245.092529 777.942932,236.734070 792.075500,236.690292 
	C819.073975,236.606674 846.072876,236.664597 873.071594,236.653214 
	C879.657104,236.650436 879.663208,236.631622 879.679504,229.996094 
	C879.689331,225.996323 879.435120,221.978058 879.738464,218.001587 
	C880.076050,213.575394 878.352905,212.280426 874.004822,212.303558 
	C845.173767,212.456955 816.341370,212.376266 787.509460,212.371780 
	C785.542358,212.371475 783.575195,212.371735 780.462036,212.371735 
	C784.653320,203.374756 788.321838,195.246521 792.241455,187.241211 
	C793.410095,184.854370 796.080383,185.668686 798.155701,185.666443 
	C828.487549,185.633713 858.819397,185.651489 889.605713,185.666656 
M833.499939,287.673401 
	C847.135620,287.670746 860.772156,287.581635 874.406433,287.720520 
	C878.275513,287.759918 879.848145,286.325378 879.713074,282.458374 
	C879.539001,277.475769 879.573547,272.480042 879.704834,267.494873 
	C879.782959,264.530701 878.666748,263.329010 875.635437,263.336456 
	C851.523804,263.395782 827.411865,263.381958 803.300232,263.329529 
	C799.621033,263.321533 798.267883,265.120270 798.334839,268.583130 
	C798.418213,272.904968 798.512268,277.237427 798.305786,281.551117 
	C798.086914,286.124573 800.156494,287.781891 804.564148,287.712616 
	C813.873901,287.566284 823.187744,287.671265 833.499939,287.673401 
z"/>
<path fill="#000000" opacity="1.000000" stroke="none" 
	d="
M580.997986,314.392334 
	C546.505859,314.397339 512.505432,313.980865 478.524323,314.609375 
	C464.512115,314.868530 453.771851,302.653809 453.715790,290.009460 
	C453.596832,263.182434 453.558014,236.353867 453.716217,209.527298 
	C453.795441,196.090805 464.668152,185.655945 478.103180,185.650375 
	C515.428467,185.634857 552.753723,185.640060 590.078979,185.678467 
	C591.812134,185.680252 593.715881,185.096909 595.343506,186.520325 
	C595.122131,189.233398 592.703003,190.269394 591.228699,191.913834 
	C585.671387,198.112457 579.875488,204.097260 574.321716,210.298920 
	C572.343933,212.507370 569.950745,212.382645 567.461975,212.383377 
	C541.800842,212.390930 516.139709,212.389771 490.478577,212.400711 
	C482.471710,212.404114 482.088257,212.807068 482.075470,220.957428 
	C482.070496,224.123398 482.287201,227.307907 482.017853,230.450974 
	C481.615112,235.150803 483.296875,236.797287 488.206177,236.763321 
	C517.864990,236.558090 547.526001,236.660828 577.186279,236.660553 
	C579.274841,236.660538 581.363403,236.660538 584.161499,236.660538 
	C582.544006,240.613892 579.740295,242.328644 577.761353,244.627747 
	C574.178772,248.789871 569.792786,252.316559 566.561462,256.710968 
	C562.289856,262.520081 556.960632,263.633362 550.154114,263.501526 
	C529.499573,263.101379 508.831482,263.460785 488.171143,263.263763 
	C483.664703,263.220825 481.697479,264.542175 482.000305,269.199005 
	C482.270142,273.348114 482.218903,277.531799 482.064758,281.691162 
	C481.897552,286.203735 483.814270,287.758118 488.342255,287.733643 
	C515.002319,287.589569 541.664551,287.799286 568.323669,287.588531 
	C573.264099,287.549500 576.782959,288.904907 579.985107,292.678589 
	C584.935913,298.513062 590.406677,303.904358 595.594360,309.541290 
	C596.659668,310.698883 598.283691,311.576050 598.231689,314.391907 
	C592.638855,314.391907 587.068176,314.391907 580.997986,314.392334 
z"/>
<path fill="#000000" opacity="1.000000" stroke="none" 
	d="
M340.744873,379.197113 
	C332.225250,372.591125 326.407410,363.956787 319.432343,356.394989 
	C306.231476,342.083649 293.475311,327.363037 280.404755,312.929840 
	C278.186066,310.479828 277.207764,308.712433 279.786560,305.814728 
	C294.822601,288.919220 309.772125,271.945709 324.620575,254.885162 
	C327.277374,251.832535 328.936432,251.348694 331.926819,254.715897 
	C358.668671,284.827393 385.579987,314.788391 412.440186,344.794769 
	C421.209961,354.591705 429.991852,364.377869 438.723602,374.208557 
	C439.774109,375.391266 441.405518,376.322632 441.051575,379.281799 
	C407.821960,379.281799 374.492798,379.281799 340.744873,379.197113 
z"/>
<path fill="#000000" opacity="1.000000" stroke="none" 
	d="
M295.037415,152.031174 
	C311.085175,134.859650 326.896820,117.956665 342.692352,101.038666 
	C344.555054,99.043633 346.441925,97.602478 349.505646,97.614357 
	C378.325745,97.726204 407.146362,97.684578 435.966858,97.709579 
	C437.112701,97.710571 438.258362,97.935059 439.340149,98.048691 
	C440.241913,100.083923 438.660858,100.920097 437.715759,101.944763 
	C406.779785,135.485184 375.811707,168.996017 344.886414,202.546295 
	C339.696320,208.176941 334.667847,213.957016 329.588165,219.688843 
	C327.580994,221.953720 325.850281,223.264572 323.197174,220.136902 
	C309.196136,203.631302 295.048828,187.249771 280.965820,170.813599 
	C280.549286,170.327499 280.282928,169.712769 279.734558,168.808411 
	C284.767517,163.290497 289.781982,157.792862 295.037415,152.031174 
z"/>
<path fill="#000000" opacity="1.000000" stroke="none" 
	d="
M653.349854,279.000122 
	C653.347046,289.491516 653.229919,299.484863 653.400940,309.473267 
	C653.463074,313.103333 652.278870,314.560974 648.544556,314.429871 
	C642.390808,314.213806 636.221863,314.274170 630.063477,314.408691 
	C626.907471,314.477631 625.614136,313.348694 625.620972,310.075867 
	C625.691284,276.438324 625.481873,242.799149 625.751160,209.163620 
	C625.861755,195.340668 636.456421,185.660202 650.381470,185.652176 
	C679.523071,185.635376 708.668762,185.920822 737.803589,185.477051 
	C746.174255,185.349579 753.552795,192.021423 754.082153,199.873413 
	C754.773132,210.121506 754.251343,220.451355 754.251343,232.267975 
	C750.295288,228.212341 746.804871,225.421219 744.313843,221.919189 
	C738.845215,214.231384 731.881470,211.789078 722.473999,212.158905 
	C704.184814,212.877869 685.847168,212.362869 667.529602,212.361160 
	C665.200684,212.360947 662.926697,212.568512 660.613098,213.067413 
	C656.878845,213.872665 654.833923,215.832123 654.136169,219.626770 
	C653.651001,222.265228 653.335693,224.869522 653.339050,227.543915 
	C653.360352,244.529282 653.349670,261.514679 653.349854,279.000122 
z"/>
</svg>